# Blender v2.93.1 OBJ File: 'crystal.blend'
# www.blender.org
mtllib individualcrystalobj.mtl
o Cylinder_Cylinder.001
v -0.000000 2.797284 -0.378715
v -0.000000 5.288021 -0.749221
v 0.360179 2.797284 -0.117029
v 0.712552 5.288021 -0.231522
v 0.222603 2.797284 0.306387
v 0.440381 5.288021 0.606133
v -0.222603 2.797284 0.306387
v -0.440381 5.288021 0.606133
v -0.360179 2.797284 -0.117029
v -0.712552 5.288021 -0.231522
v -0.000000 2.121707 -0.000000
v -0.371568 4.042653 0.511419
v 0.371568 4.042653 0.511419
v 0.601210 4.042653 -0.195345
v -0.000000 4.042653 -0.632149
v -0.601210 4.042653 -0.195345
v -0.000000 6.639175 -0.000000
vt 1.000000 0.750000
vt 1.000000 1.000000
vt 0.800000 1.000000
vt 0.800000 0.750000
vt 0.600000 1.000000
vt 0.600000 0.750000
vt 0.400000 1.000000
vt 0.400000 0.750000
vt 0.400000 1.000000
vt 0.200000 1.000000
vt 0.200000 0.750000
vt 0.000000 1.000000
vt 0.000000 0.750000
vt 0.800000 0.500000
vt 0.600000 0.500000
vt 0.800000 0.500000
vt 0.400000 0.500000
vt 0.200000 0.500000
vt 0.000000 0.500000
vt 0.200000 0.500000
vt 1.000000 0.500000
vt 1.000000 0.500000
vt 0.600000 0.500000
vt 0.400000 0.500000
vt 0.200000 1.000000
vt 0.600000 1.000000
vt 0.000000 1.000000
vt 0.800000 1.000000
vn 0.5861 -0.0758 -0.8067
vn 0.9483 -0.0758 0.3081
vn -0.0000 -0.0758 0.9971
vn -0.0000 0.4093 0.9124
vn -0.9483 -0.0758 0.3081
vn -0.5861 -0.0758 -0.8067
vn 0.8661 -0.4130 0.2814
vn -0.0000 -0.1624 0.9867
vn -0.5353 -0.4130 -0.7368
vn 0.5353 -0.4130 -0.7368
vn -0.0000 -0.4130 0.9107
vn -0.8661 -0.4130 0.2814
vn -0.9384 -0.1624 0.3049
vn -0.5800 -0.1624 -0.7983
vn 0.9384 -0.1624 0.3049
vn 0.5800 -0.1624 -0.7983
vn -0.8677 0.4093 0.2819
vn 0.8677 0.4093 0.2819
vn -0.5363 0.4093 -0.7381
vn 0.5363 0.4093 -0.7381
usemtl crystal
s off
f 15/1/1 2/2/1 4/3/1 14/4/1
f 14/4/2 4/3/2 6/5/2 13/6/2
f 13/6/3 6/5/3 8/7/3 12/8/3
f 8/7/4 6/5/4 17/9/4
f 12/8/5 8/7/5 10/10/5 16/11/5
f 16/11/6 10/10/6 2/12/6 15/13/6
f 3/14/7 5/15/7 11/16/7
f 5/15/8 13/6/8 12/8/8 7/17/8
f 9/18/9 1/19/9 11/20/9
f 1/21/10 3/14/10 11/22/10
f 5/15/11 7/17/11 11/23/11
f 7/17/12 9/18/12 11/24/12
f 7/17/13 12/8/13 16/11/13 9/18/13
f 9/18/14 16/11/14 15/13/14 1/19/14
f 3/14/15 14/4/15 13/6/15 5/15/15
f 1/21/16 15/1/16 14/4/16 3/14/16
f 10/10/17 8/7/17 17/25/17
f 6/5/18 4/3/18 17/26/18
f 2/12/19 10/10/19 17/27/19
f 4/3/20 2/2/20 17/28/20
o Cylinder.001_Cylinder.002
v 2.324140 4.780020 -0.190128
v 1.959068 3.028622 -0.071509
v 1.738985 4.780020 -0.615268
v 1.738985 3.028622 -0.231409
v 1.875004 3.028622 0.187214
v 2.100630 4.780020 0.497762
v 1.602966 3.028622 0.187214
v 1.377340 4.780020 0.497762
v 1.518902 3.028622 -0.071509
v 1.153831 4.780020 -0.190128
v 1.738985 2.278345 -0.000000
v 1.520795 3.904321 0.300313
v 1.957175 3.904321 0.300313
v 2.092024 3.904321 -0.114709
v 1.738985 3.904321 -0.371207
v 1.385947 3.904321 -0.114709
v 1.738985 5.646698 -0.000000
vt 0.600000 0.750000
vt 0.600000 1.000000
vt 0.400000 1.000000
vt 0.400000 0.750000
vt 0.800000 0.750000
vt 0.800000 1.000000
vt 1.000000 0.750000
vt 1.000000 1.000000
vt 0.400000 1.000000
vt 0.200000 1.000000
vt 0.200000 0.750000
vt 0.000000 1.000000
vt 0.000000 0.750000
vt 0.800000 0.500000
vt 0.600000 0.500000
vt 0.800000 0.500000
vt 0.400000 0.500000
vt 0.200000 0.500000
vt 0.000000 0.500000
vt 0.200000 0.500000
vt 1.000000 0.500000
vt 1.000000 0.500000
vt 0.600000 0.500000
vt 0.400000 0.500000
vt 0.200000 1.000000
vt 0.600000 1.000000
vt 0.000000 1.000000
vt 0.800000 1.000000
vn -0.0000 -0.2200 0.9755
vn 0.9278 -0.2200 0.3014
vn 0.5734 -0.2200 -0.7892
vn -0.0000 0.4980 0.8672
vn -0.9278 -0.2200 0.3014
vn -0.5734 -0.2200 -0.7892
vn 0.9228 -0.2421 0.2998
vn -0.0000 -0.1281 0.9918
vn -0.5703 -0.2421 -0.7849
vn 0.5703 -0.2421 -0.7849
vn -0.0000 -0.2421 0.9703
vn -0.9228 -0.2421 0.2998
vn -0.9432 -0.1281 0.3065
vn -0.5829 -0.1281 -0.8024
vn 0.9432 -0.1281 0.3065
vn 0.5829 -0.1281 -0.8024
vn -0.8247 0.4980 0.2680
vn 0.8247 0.4980 0.2680
vn -0.5097 0.4980 -0.7015
vn 0.5097 0.4980 -0.7015
usemtl crystal.001
s off
f 30/29/21 23/30/21 25/31/21 29/32/21
f 31/33/22 18/34/22 23/30/22 30/29/22
f 32/35/23 20/36/23 18/34/23 31/33/23
f 25/31/24 23/30/24 34/37/24
f 29/32/25 25/31/25 27/38/25 33/39/25
f 33/39/26 27/38/26 20/40/26 32/41/26
f 19/42/27 22/43/27 28/44/27
f 22/43/28 30/29/28 29/32/28 24/45/28
f 26/46/29 21/47/29 28/48/29
f 21/49/30 19/42/30 28/50/30
f 22/43/31 24/45/31 28/51/31
f 24/45/32 26/46/32 28/52/32
f 24/45/33 29/32/33 33/39/33 26/46/33
f 26/46/34 33/39/34 32/41/34 21/47/34
f 19/42/35 31/33/35 30/29/35 22/43/35
f 21/49/36 32/35/36 31/33/36 19/42/36
f 27/38/37 25/31/37 34/53/37
f 23/30/38 18/34/38 34/54/38
f 20/40/39 27/38/39 34/55/39
f 18/34/40 20/36/40 34/56/40
o Cylinder.002_Cylinder.003
v -1.873600 2.759987 -0.212129
v -1.873600 4.519930 -0.496909
v -1.671854 2.759987 -0.065551
v -1.401012 4.519930 -0.153553
v -1.748914 2.759987 0.171616
v -1.581525 4.519930 0.402008
v -1.998287 2.759987 0.171616
v -2.165676 4.519930 0.402008
v -2.075347 2.759987 -0.065552
v -2.346189 4.519930 -0.153553
v -1.873600 2.282628 -0.000000
v -2.130347 3.639959 0.353381
v -1.616854 3.639959 0.353381
v -1.458176 3.639959 -0.134980
v -1.873600 3.639959 -0.436803
v -2.289025 3.639959 -0.134980
v -1.873601 5.812437 -0.000000
vt 1.000000 0.750000
vt 1.000000 1.000000
vt 0.800000 1.000000
vt 0.800000 0.750000
vt 0.600000 1.000000
vt 0.600000 0.750000
vt 0.400000 1.000000
vt 0.400000 0.750000
vt 0.400000 1.000000
vt 0.200000 1.000000
vt 0.200000 0.750000
vt 0.000000 1.000000
vt 0.000000 0.750000
vt 0.800000 0.500000
vt 0.600000 0.500000
vt 0.800000 0.500000
vt 0.400000 0.500000
vt 0.200000 0.500000
vt 0.000000 0.500000
vt 0.200000 0.500000
vt 1.000000 0.500000
vt 1.000000 0.500000
vt 0.600000 0.500000
vt 0.400000 0.500000
vt 0.200000 1.000000
vt 0.600000 1.000000
vt 0.000000 1.000000
vt 0.800000 1.000000
vn 0.5869 -0.0552 -0.8078
vn 0.9496 -0.0552 0.3085
vn -0.0000 -0.0552 0.9985
vn -0.0000 0.2970 0.9549
vn -0.9496 -0.0552 0.3085
vn -0.5869 -0.0552 -0.8078
vn 0.8950 -0.3383 0.2908
vn -0.0000 -0.2023 0.9793
vn -0.5531 -0.3383 -0.7613
vn 0.5531 -0.3383 -0.7613
vn -0.0000 -0.3383 0.9410
vn -0.8950 -0.3383 0.2908
vn -0.9314 -0.2023 0.3026
vn -0.5756 -0.2023 -0.7923
vn 0.9314 -0.2023 0.3026
vn 0.5756 -0.2023 -0.7923
vn -0.9081 0.2970 0.2951
vn 0.9081 0.2970 0.2951
vn -0.5613 0.2970 -0.7725
vn 0.5613 0.2970 -0.7725
usemtl crystal.002
s off
f 49/57/41 36/58/41 38/59/41 48/60/41
f 48/60/42 38/59/42 40/61/42 47/62/42
f 47/62/43 40/61/43 42/63/43 46/64/43
f 42/63/44 40/61/44 51/65/44
f 46/64/45 42/63/45 44/66/45 50/67/45
f 50/67/46 44/66/46 36/68/46 49/69/46
f 37/70/47 39/71/47 45/72/47
f 39/71/48 47/62/48 46/64/48 41/73/48
f 43/74/49 35/75/49 45/76/49
f 35/77/50 37/70/50 45/78/50
f 39/71/51 41/73/51 45/79/51
f 41/73/52 43/74/52 45/80/52
f 41/73/53 46/64/53 50/67/53 43/74/53
f 43/74/54 50/67/54 49/69/54 35/75/54
f 37/70/55 48/60/55 47/62/55 39/71/55
f 35/77/56 49/57/56 48/60/56 37/70/56
f 44/66/57 42/63/57 51/81/57
f 40/61/58 38/59/58 51/82/58
f 36/68/59 44/66/59 51/83/59
f 38/59/60 36/58/60 51/84/60
